<svg width="128" height="128" viewBox="0 0 128 128" xmlns="http://www.w3.org/2000/svg">
  <!-- Cross background -->
  <rect x="0" y="0" width="128" height="128" fill="#4A90E2" rx="15" />
  
  <!-- Dove silhouette (Holy Spirit symbolism) -->
  <path d="M64 30 C55 30, 45 40, 45 55 C45 70, 55 80, 64 80 C73 80, 83 70, 83 55 C83 40, 73 30, 64 30 Z" fill="white" opacity="0.9"/>
  <path d="M64 35 L54 50 L64 65 L74 50 Z" fill="white"/>
  
  <!-- Bible book shape with play button -->
  <rect x="40" y="60" width="48" height="40" fill="white" rx="3"/>
  <path d="M55 70 L55 90 L70 80 Z" fill="#4A90E2"/>
  
  <!-- Rays of light -->
  <g stroke="white" stroke-width="2" opacity="0.7">
    <line x1="64" y1="15" x2="64" y2="25"/>
    <line x1="40" y1="30" x2="50" y2="35"/>
    <line x1="25" y1="55" x2="35" y2="55"/>
    <line x1="40" y1="80" x2="50" y2="75"/>
    <line x1="64" y1="95" x2="64" y2="85"/>
    <line x1="88" y1="80" x2="78" y2="75"/>
    <line x1="103" y1="55" x2="93" y2="55"/>
    <line x1="88" y1="30" x2="78" y2="35"/>
  </g>
  
  <!-- Text element (optional) -->
  <text x="64" y="115" text-anchor="middle" fill="white" font-family="Arial, sans-serif" font-size="12" font-weight="bold">YTruth</text>
</svg>
